<svg xmlns="http://www.w3.org/2000/svg" width="15.84" height="15.938" viewBox="0 0 15.84 15.938">
  <metadata><?xpacket begin="﻿" id="W5M0MpCehiHzreSzNTczkc9d"?>
<x:xmpmeta xmlns:x="adobe:ns:meta/" x:xmptk="Adobe XMP Core 5.6-c142 79.160924, 2017/07/13-01:06:39        ">
   <rdf:RDF xmlns:rdf="http://www.w3.org/1999/02/22-rdf-syntax-ns#">
      <rdf:Description rdf:about=""/>
   </rdf:RDF>
</x:xmpmeta>
                                                                                                    
                                                                                                    
                                                                                                    
                                                                                                    
                                                                                                    
                                                                                                    
                                                                                                    
                                                                                                    
                                                                                                    
                                                                                                    
                                                                                                    
                                                                                                    
                                                                                                    
                                                                                                    
                                                                                                    
                                                                                                    
                                                                                                    
                                                                                                    
                                                                                                    
                                                                                                    
                           
<?xpacket end="w"?></metadata>
<defs>
    <style>
      .cls-1 {
        fill: #fff;
        fill-rule: evenodd;
      }
    </style>
  </defs>
  <path id="Icon_" data-name="Icon " class="cls-1" d="M1192.86,58.666a1.371,1.371,0,1,1-1.37-1.409A1.388,1.388,0,0,1,1192.86,58.666Zm5.95,0a1.371,1.371,0,1,1-1.37-1.409A1.388,1.388,0,0,1,1198.81,58.666Zm-7.34-4.2h5.91a0.447,0.447,0,0,0,.43-0.313l1.61-4.7a0.468,0.468,0,0,0-.43-0.627H1191a0.461,0.461,0,0,0-.45.518l0.47,4.7A0.457,0.457,0,0,0,1191.47,54.466Zm6.88,1.881h-8.12a0.926,0.926,0,0,1-.91-0.844l-0.9-9.07a0.468,0.468,0,0,0-.46-0.423h-1.5a0.467,0.467,0,0,1-.46-0.47V44.6a0.467,0.467,0,0,1,.46-0.47h2.74a0.918,0.918,0,0,1,.91.843l0.16,1.554a0.457,0.457,0,0,0,.45.422h10.21a0.935,0.935,0,0,1,.86,1.251l-2.57,7.518a0.925,0.925,0,0,1-.87.628" transform="translate(-1186 -44.125)"/>
</svg>
