<svg xmlns="http://www.w3.org/2000/svg" width="28" height="18" viewBox="0 0 28 18">
  <metadata><?xpacket begin="﻿" id="W5M0MpCehiHzreSzNTczkc9d"?>
<x:xmpmeta xmlns:x="adobe:ns:meta/" x:xmptk="Adobe XMP Core 5.6-c142 79.160924, 2017/07/13-01:06:39        ">
   <rdf:RDF xmlns:rdf="http://www.w3.org/1999/02/22-rdf-syntax-ns#">
      <rdf:Description rdf:about=""/>
   </rdf:RDF>
</x:xmpmeta>
                                                                                                    
                                                                                                    
                                                                                                    
                                                                                                    
                                                                                                    
                                                                                                    
                                                                                                    
                                                                                                    
                                                                                                    
                                                                                                    
                                                                                                    
                                                                                                    
                                                                                                    
                                                                                                    
                                                                                                    
                                                                                                    
                                                                                                    
                                                                                                    
                                                                                                    
                                                                                                    
                           
<?xpacket end="w"?></metadata>
<defs>
    <style>
      .cls-1 {
        fill: #fff;
        fill-rule: evenodd;
      }
    </style>
  </defs>
  <path id="Google_Plus" data-name="Google Plus" class="cls-1" d="M314.892,2927.71c0,1.02,0,2.05,0,3.07,1.694,0.06,3.392.03,5.086,0.06-0.747,3.8-5.859,5.03-8.564,2.55a5.8,5.8,0,0,1,.242-8.98c2.021-1.64,4.9-1.23,6.917.18a32.021,32.021,0,0,0,2.254-2.36,8.982,8.982,0,1,0-9.162,15.17c3.465,1.35,7.906.43,10.118-2.72a10.422,10.422,0,0,0,1.6-6.96Q319.139,2927.69,314.892,2927.71Zm16.568-.01c-0.009-.86-0.013-1.72-0.017-2.57h-2.527c-0.008.85-.016,1.71-0.021,2.57-0.849,0-1.694.01-2.539,0.02v2.55l2.539,0.03c0.009,0.85.009,1.71,0.017,2.56h2.531c0-.85.008-1.71,0.017-2.57,0.849,0,1.694-.01,2.539-0.02v-2.55C333.154,2927.71,332.305,2927.71,331.46,2927.7Z" transform="translate(-306 -2920)"/>
</svg>
