<svg xmlns="http://www.w3.org/2000/svg" width="100" height="31" viewBox="0 0 100 31">
  <metadata><?xpacket begin="﻿" id="W5M0MpCehiHzreSzNTczkc9d"?>
<x:xmpmeta xmlns:x="adobe:ns:meta/" x:xmptk="Adobe XMP Core 5.6-c142 79.160924, 2017/07/13-01:06:39        ">
   <rdf:RDF xmlns:rdf="http://www.w3.org/1999/02/22-rdf-syntax-ns#">
      <rdf:Description rdf:about=""/>
   </rdf:RDF>
</x:xmpmeta>
                                                                                                    
                                                                                                    
                                                                                                    
                                                                                                    
                                                                                                    
                                                                                                    
                                                                                                    
                                                                                                    
                                                                                                    
                                                                                                    
                                                                                                    
                                                                                                    
                                                                                                    
                                                                                                    
                                                                                                    
                                                                                                    
                                                                                                    
                                                                                                    
                                                                                                    
                                                                                                    
                           
<?xpacket end="w"?></metadata>
<defs>
    <style>
      .cls-1 {
        fill: #fff;
        fill-rule: evenodd;
      }
    </style>
  </defs>
  <path id="Logotype" class="cls-1" d="M681.062,43.486c7.044,0,11.064,4.892,11.064,11.257S688.106,66,681.062,66,670,61.108,670,54.743,674.018,43.486,681.062,43.486Zm0,17.926c3.458,0,5.445-3.075,5.445-6.669s-1.987-6.668-5.445-6.668-5.445,3.075-5.445,6.668S677.605,61.412,681.062,61.412Zm16.077,4.242V35H702.5V45.825a7.2,7.2,0,0,1,5.273-2.339c6.569,0,9.94,4.547,9.94,11.257S714.339,66,707.77,66c-2.636,0-4.711-1.429-5.273-2.6v2.251h-5.358Zm9.9-4.242c2.809,0,5.056-2.339,5.056-6.669s-2.247-6.668-5.056-6.668-5.013,2.338-5.013,6.668S704.226,61.412,707.035,61.412Zm25.757-17.926c7.044,0,11.063,4.892,11.063,11.257S739.836,66,732.792,66s-11.063-4.893-11.063-11.258S725.747,43.486,732.792,43.486Zm0,17.926c3.457,0,5.445-3.075,5.445-6.669s-1.988-6.668-5.445-6.668-5.446,3.075-5.446,6.668S729.335,61.412,732.792,61.412Zm26.145-17.926c7.044,0,11.063,4.892,11.063,11.257S765.981,66,758.937,66s-11.063-4.893-11.063-11.258S751.892,43.486,758.937,43.486Zm0,17.926c3.457,0,5.445-3.075,5.445-6.669s-1.988-6.668-5.445-6.668-5.446,3.075-5.446,6.668S755.48,61.412,758.937,61.412Z" transform="translate(-670 -35)"/>
</svg>
