<svg xmlns="http://www.w3.org/2000/svg" width="13" height="13" viewBox="0 0 13 13">
  <metadata><?xpacket begin="﻿" id="W5M0MpCehiHzreSzNTczkc9d"?>
<x:xmpmeta xmlns:x="adobe:ns:meta/" x:xmptk="Adobe XMP Core 5.6-c142 79.160924, 2017/07/13-01:06:39        ">
   <rdf:RDF xmlns:rdf="http://www.w3.org/1999/02/22-rdf-syntax-ns#">
      <rdf:Description rdf:about=""/>
   </rdf:RDF>
</x:xmpmeta>
                                                                                                    
                                                                                                    
                                                                                                    
                                                                                                    
                                                                                                    
                                                                                                    
                                                                                                    
                                                                                                    
                                                                                                    
                                                                                                    
                                                                                                    
                                                                                                    
                                                                                                    
                                                                                                    
                                                                                                    
                                                                                                    
                                                                                                    
                                                                                                    
                                                                                                    
                                                                                                    
                           
<?xpacket end="w"?></metadata>
<defs>
    <style>
      .cls-1 {
        fill-rule: evenodd;
        opacity: 0.25;
      }
    </style>
  </defs>
  <path id="_" data-name="+" class="cls-1" d="M2349.5,868a6.494,6.494,0,1,0,4.6,1.9,6.463,6.463,0,0,0-4.6-1.9h0Zm4.02,10.521a5.676,5.676,0,1,1,1.67-4.021,5.635,5.635,0,0,1-1.67,4.021h0Zm-0.36-4.428h-3.25v-3.249a0.41,0.41,0,0,0-.82,0v3.249h-3.25a0.407,0.407,0,0,0,0,.813h3.25v3.25a0.41,0.41,0,0,0,.82,0v-3.25h3.25a0.407,0.407,0,0,0,0-.813h0Z" transform="translate(-2343 -868)"/>
</svg>
