<svg xmlns="http://www.w3.org/2000/svg" width="21" height="17" viewBox="0 0 21 17">
  <metadata><?xpacket begin="﻿" id="W5M0MpCehiHzreSzNTczkc9d"?>
<x:xmpmeta xmlns:x="adobe:ns:meta/" x:xmptk="Adobe XMP Core 5.6-c142 79.160924, 2017/07/13-01:06:39        ">
   <rdf:RDF xmlns:rdf="http://www.w3.org/1999/02/22-rdf-syntax-ns#">
      <rdf:Description rdf:about=""/>
   </rdf:RDF>
</x:xmpmeta>
                                                                                                    
                                                                                                    
                                                                                                    
                                                                                                    
                                                                                                    
                                                                                                    
                                                                                                    
                                                                                                    
                                                                                                    
                                                                                                    
                                                                                                    
                                                                                                    
                                                                                                    
                                                                                                    
                                                                                                    
                                                                                                    
                                                                                                    
                                                                                                    
                                                                                                    
                                                                                                    
                           
<?xpacket end="w"?></metadata>
<defs>
    <style>
      .cls-1 {
        fill: #fff;
        fill-rule: evenodd;
      }
    </style>
  </defs>
  <path id="Twitter" class="cls-1" d="M283,2923.02a8.555,8.555,0,0,1-2.476.67,4.3,4.3,0,0,0,1.9-2.37,8.619,8.619,0,0,1-2.736,1.04,4.307,4.307,0,0,0-7.344,3.91,12.238,12.238,0,0,1-8.882-4.48,4.247,4.247,0,0,0-.584,2.16,4.294,4.294,0,0,0,1.917,3.57,4.428,4.428,0,0,1-1.952-.54v0.05a4.3,4.3,0,0,0,3.457,4.21,4.247,4.247,0,0,1-1.135.15,4.33,4.33,0,0,1-.811-0.08,4.3,4.3,0,0,0,4.025,2.98,8.723,8.723,0,0,1-6.38,1.78,12.3,12.3,0,0,0,6.606,1.92,12.143,12.143,0,0,0,12.262-12.2c0-.18,0-0.37-0.012-0.55A8.842,8.842,0,0,0,283,2923.02Z" transform="translate(-262 -2921)"/>
</svg>
